<?xml version="1.0" encoding="UTF-8"?><svg id="Layer_1" xmlns="http://www.w3.org/2000/svg" viewBox="0 0 901.02 246.52"><g><polygon points="109.63 10 44.24 10 11.55 66.63 44.24 123.26 109.63 123.26 142.33 66.63 109.63 10" style="fill:#f0a61d;"/><polygon points="207.75 66.63 142.36 66.63 109.67 123.26 142.36 179.89 207.75 179.89 240.44 123.26 207.75 66.63" style="fill:#4c9c5a;"/><polygon points="109.63 123.26 44.24 123.26 11.55 179.89 44.24 236.52 109.63 236.52 142.33 179.89 109.63 123.26" style="fill:#fbe6c4;"/></g><g><path d="M297.91,168.83c-5.95-1.98-10.63-4.56-14.03-7.71l4.5-9.48c3.24,2.92,7.39,5.28,12.45,7.11,5.06,1.82,10.27,2.73,15.61,2.73,7.05,0,12.31-1.19,15.79-3.58,3.48-2.39,5.22-5.57,5.22-9.54,0-2.92-.95-5.29-2.85-7.11-1.9-1.82-4.25-3.22-7.05-4.19-2.79-.97-6.74-2.07-11.84-3.28-6.4-1.54-11.56-3.08-15.49-4.62-3.93-1.54-7.29-3.91-10.08-7.11-2.79-3.2-4.19-7.51-4.19-12.94,0-4.53,1.19-8.63,3.58-12.27,2.39-3.64,6.01-6.56,10.87-8.75,4.86-2.19,10.89-3.28,18.1-3.28,5.02,0,9.96,.65,14.82,1.94,4.86,1.3,9.03,3.16,12.51,5.59l-4.01,9.72c-3.56-2.27-7.37-3.99-11.42-5.16-4.05-1.17-8.02-1.76-11.91-1.76-6.88,0-12.05,1.26-15.49,3.77-3.44,2.51-5.16,5.75-5.16,9.72,0,2.92,.97,5.28,2.92,7.11s4.35,3.24,7.23,4.25c2.87,1.01,6.78,2.09,11.72,3.22,6.4,1.54,11.54,3.08,15.43,4.62,3.89,1.54,7.23,3.89,10.02,7.05,2.79,3.16,4.19,7.41,4.19,12.76,0,4.46-1.21,8.53-3.64,12.21-2.43,3.69-6.12,6.6-11.06,8.75-4.94,2.15-11.02,3.22-18.22,3.22-6.4,0-12.57-.99-18.53-2.98Z" style="fill:#42210b;"/><path d="M375.91,167.31c-5.14-2.83-9.17-6.74-12.09-11.72-2.92-4.98-4.37-10.63-4.37-16.95s1.46-11.97,4.37-16.95c2.92-4.98,6.94-8.87,12.09-11.66,5.14-2.79,10.99-4.19,17.56-4.19,5.83,0,11.03,1.18,15.61,3.52,4.57,2.35,8.12,5.75,10.63,10.21l-8.87,5.71c-2.03-3.08-4.54-5.38-7.53-6.92-3-1.54-6.32-2.31-9.96-2.31-4.21,0-8,.93-11.36,2.79-3.36,1.86-5.99,4.52-7.9,7.96-1.9,3.44-2.85,7.39-2.85,11.84s.95,8.52,2.85,11.97c1.9,3.44,4.54,6.1,7.9,7.96,3.36,1.86,7.15,2.79,11.36,2.79,3.64,0,6.96-.77,9.96-2.31,3-1.54,5.51-3.85,7.53-6.92l8.87,5.59c-2.51,4.46-6.05,7.88-10.63,10.27-4.58,2.39-9.78,3.58-15.61,3.58-6.56,0-12.41-1.42-17.56-4.25Z" style="fill:#42210b;"/><path d="M454.93,108.75c3.97-1.94,8.79-2.92,14.46-2.92v11.3c-.65-.08-1.54-.12-2.67-.12-6.32,0-11.28,1.88-14.88,5.65-3.6,3.77-5.41,9.13-5.41,16.1v32.07h-11.66V106.45h11.18v10.81c2.02-3.72,5.02-6.56,8.99-8.5Z" style="fill:#42210b;"/><path d="M527.52,112.4c4.74,4.37,7.11,10.89,7.11,19.56v38.88h-11.06v-8.5c-1.94,3-4.72,5.28-8.32,6.86-3.6,1.58-7.88,2.37-12.82,2.37-7.21,0-12.98-1.74-17.31-5.22-4.33-3.48-6.5-8.06-6.5-13.73s2.07-10.22,6.2-13.67c4.13-3.44,10.69-5.16,19.68-5.16h18.47v-2.31c0-5.02-1.46-8.87-4.37-11.54-2.92-2.67-7.21-4.01-12.88-4.01-3.81,0-7.53,.63-11.18,1.88-3.64,1.26-6.72,2.94-9.23,5.04l-4.86-8.75c3.32-2.67,7.29-4.72,11.91-6.14,4.62-1.42,9.52-2.13,14.7-2.13,8.91,0,15.73,2.19,20.47,6.56Zm-11.6,47.2c3.24-1.98,5.59-4.8,7.05-8.44v-8.99h-17.98c-9.88,0-14.82,3.32-14.82,9.96,0,3.24,1.25,5.79,3.77,7.65,2.51,1.86,5.99,2.79,10.45,2.79s8.3-.99,11.54-2.98Z" style="fill:#42210b;"/><path d="M607.15,109.97c4.94,2.75,8.81,6.6,11.6,11.54,2.79,4.94,4.19,10.65,4.19,17.13s-1.4,12.21-4.19,17.19c-2.79,4.98-6.66,8.85-11.6,11.6-4.94,2.75-10.53,4.13-16.76,4.13-4.62,0-8.85-.89-12.7-2.67-3.85-1.78-7.11-4.37-9.78-7.78v33.29h-11.66V106.45h11.18v10.21c2.59-3.56,5.87-6.26,9.84-8.08,3.97-1.82,8.34-2.73,13.12-2.73,6.24,0,11.82,1.38,16.76,4.13Zm-6.62,48.53c3.28-1.9,5.87-4.57,7.77-8.02,1.9-3.44,2.86-7.39,2.86-11.84s-.95-8.4-2.86-11.84c-1.9-3.44-4.5-6.09-7.77-7.96-3.28-1.86-6.99-2.79-11.12-2.79s-7.71,.95-10.99,2.85c-3.28,1.9-5.87,4.56-7.78,7.96-1.9,3.4-2.85,7.33-2.85,11.78s.93,8.4,2.79,11.84c1.86,3.44,4.45,6.12,7.77,8.02,3.32,1.9,7,2.86,11.06,2.86s7.84-.95,11.12-2.86Z" style="fill:#42210b;"/><path d="M713.94,85.79v85.04h-12.15v-37.9h-48.84v37.9h-12.15V85.79h12.15v36.57h48.84v-36.57h12.15Z" style="fill:#f0a61d;"/><path d="M737.93,91.87c-1.5-1.46-2.25-3.24-2.25-5.35s.75-3.91,2.25-5.41c1.5-1.5,3.38-2.25,5.65-2.25s4.15,.71,5.65,2.13c1.5,1.42,2.25,3.18,2.25,5.28s-.75,4.03-2.25,5.53c-1.5,1.5-3.38,2.25-5.65,2.25s-4.15-.73-5.65-2.19Zm-.18,14.58h11.66v64.39h-11.66V106.45Z" style="fill:#f0a61d;"/><path d="M828.62,106.45l-28.18,64.39h-11.91l-28.18-64.39h12.15l22.11,51.63,22.6-51.63h11.42Z" style="fill:#f0a61d;"/><path d="M895.68,142.53h-52.24c.73,5.67,3.22,10.23,7.47,13.67,4.25,3.44,9.54,5.16,15.85,5.16,7.69,0,13.89-2.59,18.59-7.78l6.44,7.53c-2.92,3.4-6.54,5.99-10.87,7.78-4.33,1.78-9.17,2.67-14.52,2.67-6.8,0-12.84-1.4-18.1-4.19-5.27-2.79-9.33-6.7-12.21-11.72-2.88-5.02-4.31-10.69-4.31-17.01s1.4-11.86,4.19-16.89c2.79-5.02,6.64-8.93,11.54-11.72,4.9-2.79,10.43-4.19,16.58-4.19s11.64,1.4,16.46,4.19c4.82,2.79,8.58,6.7,11.3,11.72,2.71,5.02,4.07,10.77,4.07,17.25,0,.89-.08,2.07-.24,3.52Zm-45.62-21.75c-3.77,3.4-5.97,7.86-6.62,13.36h41.31c-.65-5.42-2.86-9.86-6.62-13.3-3.77-3.44-8.44-5.16-14.03-5.16s-10.26,1.7-14.03,5.1Z" style="fill:#f0a61d;"/></g></svg>